<?xml version="1.0" encoding="UTF-8" standalone="no"?>
<!DOCTYPE svg PUBLIC "-//W3C//DTD SVG 1.1//EN" "http://www.w3.org/Graphics/SVG/1.1/DTD/svg11.dtd">
<svg width="100%" height="70.00" viewBox="0.00 0.00 500.00 70.00" xmlns="http://www.w3.org/2000/svg" xmlns:xlink="http://www.w3.org/1999/xlink" preserveAspectRatio="none">
<g transform="translate(0.00, -65.00)" fill="currentcolor">
<path d="M-51.88,86.58 C-45.99,85.46 -39.15,84.36 -34.38,84.05 C-28.44,83.69 -17.30,84.88 -11.70,85.65 C-8.30,85.93 24.48,82.46 34.68,81.47 C45.32,80.62 67.32,79.65 78.87,79.55 C89.88,79.74 111.95,80.80 123.67,81.45 C135.40,81.99 152.05,82.04 164.91,81.56 C174.38,81.11 194.81,80.49 203.59,81.48 C211.24,82.36 237.78,89.17 242.47,90.21 C246.90,91.17 255.83,92.22 260.70,92.21 C270.58,92.15 292.79,87.80 302.07,85.41 C315.92,81.68 335.11,77.21 345.77,76.37 C355.74,75.64 379.20,76.78 389.69,77.36 C401.16,77.82 425.07,78.74 437.52,79.20 C454.03,79.36 502.10,78.18 520.58,77.69 C524.32,77.72 531.47,77.96 533.06,78.04 C542.61,78.61 546.45,78.83 549.25,80.04 C550.87,80.79 551.24,81.79 551.01,84.17 C549.93,97.73 546.82,115.92 543.06,129.44 C542.50,131.35 541.40,134.99 540.87,136.72 C518.10,137.50 473.92,138.87 452.51,139.48 C429.73,139.70 384.47,139.96 362.00,140.00 C340.73,140.00 298.86,140.00 278.25,140.00 C257.01,140.00 215.54,140.00 195.33,140.00 C172.10,140.00 127.51,139.93 106.16,139.86 C84.27,139.74 42.41,139.47 22.44,139.32 C0.77,139.33 -37.73,139.59 -54.56,139.83 C-56.25,134.82 -59.60,123.67 -60.79,118.38 C-63.29,106.72 -63.98,94.31 -64.02,91.76 C-64.02,91.76 -59.15,89.19 -59.15,89.19 C-59.15,89.19 -51.88,86.58 -51.88,86.58 Z"/>
</g>
</svg>
